<?xml version="1.0" encoding="utf-8"?>
<svg id="Layer_2" data-name="Layer 2" viewBox="0 0 1928 398.3" xmlns="http://www.w3.org/2000/svg">
  <defs>
    <style>
      .cls-1 {
        fill: #fff;
        stroke-width: 0px;
      }
    </style>
  </defs>
  <path id="Path_132-2" data-name="Path 132-2" class="cls-1" d="M 481.171 304.37 C 478.668 304.37 476.169 304.614 473.699 305.078 L 459.741 259.525 L 426.063 259.525 L 426.063 271.553 L 451.636 270.914 L 455.648 285.711 C 455.648 285.711 432.866 290.181 415.708 318.927 C 414.258 321.366 412.626 323.694 410.824 325.866 L 400.005 295.93 L 404.869 295.93 L 404.869 284.288 L 373.119 284.288 L 373.119 295.93 L 387.827 295.93 L 393.772 310.681 C 373.873 298.201 348.023 304.879 336.037 325.602 C 324.053 346.325 330.464 373.242 350.367 385.721 C 370.268 398.202 396.114 391.526 408.099 370.802 C 413.43 361.588 415.317 350.652 413.399 340.092 C 417.436 336.493 420.924 332.278 423.742 327.599 C 442.775 296.336 459.392 296.336 459.392 296.336 L 463.164 308.609 C 442.181 318.971 433.236 345.077 443.19 366.927 C 453.14 388.779 478.214 398.093 499.194 387.731 C 520.18 377.366 529.122 351.258 519.171 329.409 C 512.207 314.124 497.406 304.382 481.159 304.391 L 481.171 304.37 Z M 403.309 348.181 C 403.333 366.167 389.355 380.778 372.069 380.8 C 354.794 380.821 340.765 366.266 340.743 348.268 C 340.721 330.282 354.702 315.671 371.985 315.65 C 384.404 315.626 395.658 323.263 400.663 335.103 C 391.421 341.173 380.452 343.733 369.6 342.363 L 369.6 353.255 C 381.152 354.558 392.83 352.418 403.268 347.108 C 403.268 347.462 403.301 347.826 403.301 348.192 L 403.309 348.192 L 403.309 348.181 Z M 481.171 380.701 C 463.916 380.701 449.937 366.145 449.928 348.192 C 449.928 336.15 456.308 325.104 466.514 319.455 L 476.559 352.132 L 486.754 347.662 L 477.027 315.936 C 478.403 315.748 479.781 315.65 481.171 315.638 C 498.423 315.638 512.411 330.203 512.411 348.168 C 512.411 366.134 498.423 380.701 481.171 380.701 Z" style="clip-path: none; stroke-width: 0px; transform-origin: 1232.44px 344.314px;"/>
  <path id="Path_132-2-2" data-name="Path 132-2" class="cls-1" d="M 811.168 304.37 C 808.669 304.37 806.166 304.614 803.698 305.078 L 789.743 259.525 L 756.063 259.525 L 756.063 271.553 L 781.633 270.914 L 785.648 285.711 C 785.648 285.711 762.868 290.181 745.709 318.927 C 744.258 321.366 742.626 323.694 740.824 325.866 L 730.003 295.93 L 734.869 295.93 L 734.869 284.288 L 703.118 284.288 L 703.118 295.93 L 717.828 295.93 L 723.773 310.681 C 703.87 298.201 678.021 304.879 666.039 325.602 C 654.052 346.325 660.463 373.242 680.365 385.721 C 700.268 398.202 726.115 391.526 738.1 370.802 C 743.43 361.588 745.316 350.652 743.398 340.092 C 747.437 336.493 750.924 332.278 753.743 327.599 C 772.776 296.336 789.392 296.336 789.392 296.336 L 793.166 308.609 C 772.182 318.971 763.238 345.077 773.19 366.927 C 783.138 388.779 808.212 398.093 829.196 387.731 C 850.178 377.366 859.123 351.258 849.172 329.409 C 842.209 314.124 827.404 304.382 811.157 304.391 L 811.168 304.37 Z M 733.311 348.181 C 733.333 366.167 719.353 380.778 702.07 380.8 C 684.797 380.821 670.763 366.266 670.741 348.268 C 670.721 330.282 684.7 315.671 701.985 315.65 C 714.404 315.626 725.661 323.263 730.66 335.103 C 721.421 341.173 710.452 343.733 699.599 342.363 L 699.599 353.255 C 711.151 354.558 722.83 352.418 733.266 347.108 C 733.266 347.462 733.3 347.826 733.3 348.192 L 733.311 348.192 L 733.311 348.181 Z M 811.168 380.701 C 793.916 380.701 779.939 366.145 779.927 348.192 C 779.927 336.15 786.307 325.104 796.512 319.455 L 806.558 352.132 L 816.754 347.662 L 807.026 315.936 C 808.404 315.748 809.78 315.65 811.168 315.638 C 828.422 315.638 842.408 330.203 842.408 348.168 C 842.408 366.134 828.422 380.701 811.168 380.701 Z" style="clip-path: none; stroke-width: 0px; transform-origin: 1159.52px 344.314px;"/>
  <path id="Path_132-2-3" data-name="Path 132-2" class="cls-1" d="M 1141.169 304.37 C 1138.666 304.37 1136.168 304.614 1133.697 305.078 L 1119.741 259.525 L 1086.064 259.525 L 1086.064 271.553 L 1111.634 270.914 L 1115.652 285.711 C 1115.652 285.711 1092.867 290.181 1075.708 318.927 C 1074.258 321.366 1072.625 323.694 1070.825 325.866 L 1060.006 295.93 L 1064.869 295.93 L 1064.869 284.288 L 1033.116 284.288 L 1033.116 295.93 L 1047.829 295.93 L 1053.772 310.681 C 1033.87 298.201 1008.024 304.879 996.039 325.602 C 984.053 346.325 990.463 373.242 1010.365 385.721 C 1030.268 398.202 1056.116 391.526 1068.103 370.802 C 1073.429 361.588 1075.317 350.652 1073.4 340.092 C 1077.439 336.493 1080.922 332.278 1083.743 327.599 C 1102.777 296.336 1119.389 296.336 1119.389 296.336 L 1123.165 308.609 C 1102.18 318.971 1093.237 345.077 1103.188 366.927 C 1113.137 388.779 1138.214 398.093 1159.198 387.731 C 1180.179 377.366 1189.124 351.258 1179.171 329.409 C 1172.208 314.124 1157.405 304.382 1141.158 304.391 L 1141.169 304.37 Z M 1063.311 348.181 C 1063.331 366.167 1049.356 380.778 1032.07 380.8 C 1014.795 380.821 1000.767 366.266 1000.745 348.268 C 1000.723 330.282 1014.7 315.671 1031.987 315.65 C 1044.405 315.626 1055.658 323.263 1060.661 335.103 C 1051.418 341.173 1040.453 343.733 1029.6 342.363 L 1029.6 353.255 C 1041.15 354.558 1052.829 352.418 1063.269 347.108 C 1063.269 347.462 1063.302 347.826 1063.302 348.192 L 1063.311 348.192 L 1063.311 348.181 Z M 1141.169 380.701 C 1123.916 380.701 1109.94 366.145 1109.929 348.192 C 1109.929 336.15 1116.31 325.104 1126.514 319.455 L 1136.558 352.132 L 1146.752 347.662 L 1137.027 315.936 C 1138.403 315.748 1139.78 315.65 1141.169 315.638 C 1158.423 315.638 1172.411 330.203 1172.411 348.168 C 1172.411 366.134 1158.423 380.701 1141.169 380.701 Z" style="clip-path: none; stroke-width: 0px; transform-origin: 1086.6px 344.314px;"/>
  <path id="Path_132-2-4" data-name="Path 132-2" class="cls-1" d="M 1471.169 304.37 C 1468.669 304.37 1466.166 304.614 1463.698 305.078 L 1449.742 259.525 L 1416.064 259.525 L 1416.064 271.553 L 1441.631 270.914 L 1445.652 285.711 C 1445.652 285.711 1422.867 290.181 1405.708 318.927 C 1404.257 321.366 1402.625 323.694 1400.822 325.866 L 1390.004 295.93 L 1394.868 295.93 L 1394.868 284.288 L 1363.119 284.288 L 1363.119 295.93 L 1377.828 295.93 L 1383.775 310.681 C 1363.87 298.201 1338.024 304.879 1326.037 325.602 C 1314.055 346.325 1320.463 373.242 1340.365 385.721 C 1360.267 398.202 1386.117 391.526 1398.102 370.802 C 1403.432 361.588 1405.318 350.652 1403.399 340.092 C 1407.436 336.493 1410.924 332.278 1413.742 327.599 C 1432.775 296.336 1449.393 296.336 1449.393 296.336 L 1453.163 308.609 C 1432.182 318.971 1423.237 345.077 1433.19 366.927 C 1443.14 388.779 1468.213 398.093 1489.195 387.731 C 1510.179 377.366 1519.121 351.258 1509.172 329.409 C 1502.209 314.124 1487.404 304.382 1471.156 304.391 L 1471.169 304.37 Z M 1393.31 348.181 C 1393.331 366.167 1379.355 380.778 1362.068 380.8 C 1344.797 380.821 1330.765 366.266 1330.744 348.268 C 1330.721 330.282 1344.7 315.671 1361.985 315.65 C 1374.403 315.626 1385.657 323.263 1390.659 335.103 C 1381.419 341.173 1370.452 343.733 1359.597 342.363 L 1359.597 353.255 C 1371.15 354.558 1382.832 352.418 1393.27 347.108 C 1393.27 347.462 1393.3 347.826 1393.3 348.192 L 1393.31 348.192 L 1393.31 348.181 Z M 1471.169 380.701 C 1453.919 380.701 1439.939 366.145 1439.929 348.192 C 1439.929 336.15 1446.306 325.104 1456.515 319.455 L 1466.56 352.132 L 1476.755 347.662 L 1467.025 315.936 C 1468.403 315.748 1469.779 315.65 1471.169 315.638 C 1488.421 315.638 1502.41 330.203 1502.41 348.168 C 1502.41 366.134 1488.421 380.701 1471.169 380.701 Z" style="clip-path: none; stroke-width: 0px; transform-origin: 1013.69px 344.314px;"/>
  <path id="path-2" data-name="Path 132-2" class="cls-1" d="M 151.168 304.848 C 148.67 304.848 146.167 305.092 143.697 305.553 L 129.744 260 L 96.061 260 L 96.061 272.029 L 121.634 271.391 L 125.649 286.189 C 125.649 286.189 102.866 290.657 85.709 319.404 C 84.256 321.843 82.627 324.169 80.822 326.342 L 70.001 296.406 L 74.87 296.406 L 74.87 284.764 L 43.118 284.764 L 43.118 296.406 L 57.828 296.406 L 63.774 311.158 C 43.87 298.679 18.023 305.356 6.039 326.079 C -5.948 346.802 0.462 373.718 20.366 386.199 C 40.267 398.678 66.116 392.001 78.099 371.279 C 83.428 362.064 85.316 351.127 83.396 340.569 C 87.438 336.969 90.924 332.756 93.742 328.075 C 112.775 296.814 129.394 296.814 129.394 296.814 L 133.166 309.084 C 112.183 319.447 103.239 345.556 113.188 367.404 C 123.138 389.255 148.21 398.568 169.193 388.207 C 190.179 377.843 199.122 351.736 189.171 329.886 C 182.21 314.603 167.402 304.86 151.157 304.869 L 151.168 304.848 Z M 73.308 348.657 C 73.333 366.646 59.354 381.254 42.07 381.276 C 24.796 381.298 10.762 366.744 10.742 348.745 C 10.72 330.758 24.699 316.147 41.985 316.124 C 54.404 316.103 65.661 323.74 70.66 335.581 C 61.42 341.648 50.452 344.211 39.6 342.84 L 39.6 353.733 C 51.151 355.036 62.829 352.894 73.267 347.585 C 73.267 347.938 73.298 348.302 73.298 348.67 L 73.308 348.67 L 73.308 348.657 Z M 151.168 381.176 C 133.916 381.176 119.939 366.622 119.925 348.67 C 119.925 336.627 126.307 325.581 136.512 319.932 L 146.557 352.607 L 156.755 348.139 L 147.026 316.41 C 148.404 316.224 149.78 316.124 151.168 316.113 C 168.419 316.113 182.409 330.681 182.409 348.645 C 182.409 366.609 168.419 381.176 151.168 381.176 Z" style="clip-path: none; stroke-width: 0px; transform-origin: 499.531px 344.792px;"/>
  <path id="path-1" data-name="Path 132-2" class="cls-1" d="M 2575.773 304.37 C 2573.273 304.37 2570.773 304.614 2568.302 305.078 L 2554.342 259.525 L 2520.666 259.525 L 2520.666 271.553 L 2546.239 270.914 L 2550.255 285.711 C 2550.255 285.711 2527.472 290.181 2510.313 318.927 C 2508.86 321.366 2507.228 323.694 2505.429 325.866 L 2494.607 295.93 L 2499.472 295.93 L 2499.472 284.288 L 2467.72 284.288 L 2467.72 295.93 L 2482.43 295.93 L 2488.374 310.681 C 2468.473 298.201 2442.628 304.879 2430.641 325.602 C 2418.656 346.325 2425.068 373.242 2444.969 385.721 C 2464.871 398.202 2490.72 391.526 2502.703 370.802 C 2508.033 361.588 2509.921 350.652 2508.003 340.092 C 2512.04 336.493 2515.527 332.278 2518.343 327.599 C 2537.379 296.336 2553.997 296.336 2553.997 296.336 L 2557.769 308.609 C 2536.784 318.971 2527.841 345.077 2537.791 366.927 C 2547.742 388.779 2572.816 398.093 2593.798 387.731 C 2614.781 377.366 2623.727 351.258 2613.773 329.409 C 2606.814 314.124 2592.007 304.382 2575.762 304.391 L 2575.773 304.37 Z M 2497.913 348.181 C 2497.934 366.167 2483.956 380.778 2466.673 380.8 C 2449.399 380.821 2435.366 366.266 2435.346 348.268 C 2435.325 330.282 2449.304 315.671 2466.587 315.65 C 2479.008 315.626 2490.264 323.263 2495.265 335.103 C 2486.021 341.173 2475.055 343.733 2464.205 342.363 L 2464.205 353.255 C 2475.753 354.558 2487.435 352.418 2497.87 347.108 C 2497.87 347.462 2497.901 347.826 2497.901 348.192 L 2497.913 348.192 L 2497.913 348.181 Z M 2575.773 380.701 C 2558.521 380.701 2544.542 366.145 2544.53 348.192 C 2544.53 336.15 2550.912 325.104 2561.116 319.455 L 2571.163 352.132 L 2581.356 347.662 L 2571.63 315.936 C 2573.007 315.748 2574.385 315.65 2575.773 315.638 C 2593.025 315.638 2607.013 330.203 2607.013 348.168 C 2607.013 366.134 2593.025 380.701 2575.773 380.701 Z" style="clip-path: none; stroke-width: 0px; transform-origin: 1715.38px 344.314px;"/>
  <path id="path-3" data-name="Path 132-2" class="cls-1" d="M 1801.168 304.345 C 1798.668 304.345 1796.165 304.589 1793.697 305.053 L 1779.741 259.5 L 1746.063 259.5 L 1746.063 271.528 L 1771.63 270.889 L 1775.651 285.686 C 1775.651 285.686 1752.866 290.156 1735.707 318.902 C 1734.256 321.341 1732.624 323.669 1730.821 325.841 L 1720.003 295.905 L 1724.867 295.905 L 1724.867 284.263 L 1693.118 284.263 L 1693.118 295.905 L 1707.827 295.905 L 1713.774 310.656 C 1693.869 298.176 1668.023 304.854 1656.036 325.577 C 1644.054 346.3 1650.462 373.217 1670.364 385.696 C 1690.266 398.177 1716.116 391.501 1728.101 370.777 C 1733.431 361.563 1735.317 350.627 1733.398 340.067 C 1737.435 336.468 1740.923 332.253 1743.741 327.574 C 1762.774 296.311 1779.392 296.311 1779.392 296.311 L 1783.162 308.584 C 1762.181 318.946 1753.236 345.052 1763.189 366.902 C 1773.139 388.754 1798.212 398.068 1819.194 387.706 C 1840.178 377.341 1849.12 351.233 1839.171 329.384 C 1832.208 314.099 1817.403 304.357 1801.155 304.366 L 1801.168 304.345 Z M 1723.309 348.156 C 1723.33 366.142 1709.354 380.753 1692.067 380.775 C 1674.796 380.796 1660.764 366.241 1660.743 348.243 C 1660.72 330.257 1674.699 315.646 1691.984 315.625 C 1704.402 315.601 1715.656 323.238 1720.658 335.078 C 1711.418 341.148 1700.451 343.708 1689.596 342.338 L 1689.596 353.23 C 1701.149 354.533 1712.831 352.393 1723.269 347.083 C 1723.269 347.437 1723.299 347.801 1723.299 348.167 L 1723.309 348.167 L 1723.309 348.156 Z M 1801.168 380.676 C 1783.918 380.676 1769.938 366.12 1769.928 348.167 C 1769.928 336.125 1776.305 325.079 1786.514 319.43 L 1796.559 352.107 L 1806.754 347.637 L 1797.024 315.911 C 1798.402 315.723 1799.778 315.625 1801.168 315.613 C 1818.42 315.613 1832.409 330.178 1832.409 348.143 C 1832.409 366.109 1818.42 380.676 1801.168 380.676 Z" style="clip-path: none; stroke-width: 0px; transform-origin: 1343.69px 344.289px;"/>
</svg>