<svg xmlns="http://www.w3.org/2000/svg" width="232.271" height="232.271" viewBox="0 0 232.271 232.271">
  <g id="bikebox_logo" data-name="bikebox logo" transform="translate(5 5)">
    <g id="Group_30" data-name="Group 30">
      <rect id="Rectangle_3" data-name="Rectangle 3" width="222.271" height="222.271" fill="#fff" stroke="#189dd9" stroke-miterlimit="10" stroke-width="10"/>
      <g id="Group_2" data-name="Group 2" transform="translate(53.908 30.143)">
        <path id="Path_1" data-name="Path 1" d="M189.368,84.3a24.5,24.5,0,0,0-4.409.4l-8.237-25.81H156.855V65.7l15.086-.366,2.37,8.382s-13.442,2.533-23.567,18.821a31.122,31.122,0,0,1-2.881,3.933l-6.384-16.962h2.87V72.919H125.614v6.593h8.679l3.509,8.359a24.818,24.818,0,1,0,11.583,16.66,31.177,31.177,0,0,0,6.105-7.081c11.229-17.712,21.035-17.712,21.035-17.712l2.225,6.953A24.81,24.81,0,1,0,189.368,84.3ZM143.43,109.121a18.458,18.458,0,1,1-1.563-7.407,28.027,28.027,0,0,1-18.328,4.113V112a36.34,36.34,0,0,0,19.867-3.485c.006.2.017.407.017.61Zm45.938,18.432a18.427,18.427,0,0,1-8.644-34.7l5.925,18.513,6.012-2.533-5.739-17.979a18.858,18.858,0,0,1,2.446-.168,18.432,18.432,0,0,1,0,36.864Z" transform="translate(-99.955 -58.89)" fill="#189dd9"/>
        <g id="Group_1" data-name="Group 1" transform="translate(0 75.053)">
          <rect id="Rectangle_4" data-name="Rectangle 4" width="9.294" height="39.019" transform="translate(34.453 0.122)" fill="#2c2a6e"/>
          <path id="Path_2" data-name="Path 2" d="M128.787,215.294a12.446,12.446,0,0,0-2.48-7.505,12.484,12.484,0,0,0,2.48-7.505,11.956,11.956,0,0,0-11.676-12.193H99.8V266.9h17.346A11.959,11.959,0,0,0,128.781,254.7a12.447,12.447,0,0,0-2.48-7.505,12.485,12.485,0,0,0,2.48-7.505A11.956,11.956,0,0,0,117.105,227.5a11.959,11.959,0,0,0,11.676-12.193Zm-11.676,42.22h-7.982v-5.629h7.982a2.865,2.865,0,0,1,0,5.635Zm2.347-17.828a2.618,2.618,0,0,1-2.347,2.817h-7.982v-5.629h7.982a2.615,2.615,0,0,1,2.347,2.817Zm-2.347-21.755h-7.982V212.3h7.982a2.865,2.865,0,0,1,0,5.635Zm0-15.011h-7.982v-5.629h7.982a2.865,2.865,0,0,1,0,5.635Z" transform="translate(-99.8 -188.09)" fill="#2c2a6e"/>
          <path id="Path_3" data-name="Path 3" d="M236.212,218.914l1.04-1.609H214.23v-5.577h15.04v-9.294H214.23v-5.577h15.04V188.3h-34.36l-11.055,17.154V188.3H174.56V225.64a20.69,20.69,0,1,0,9.294,1.818V209.474l23.7,36.771-13.367,20.744h11.055l7.836-12.164,7.836,12.164h11.055L218.6,246.245l12.652-19.635,4.955-7.685ZM186.742,246.3a11.386,11.386,0,1,1-11.386-11.386A11.4,11.4,0,0,1,186.742,246.3ZM204.936,189.9v35.121L193.62,207.464Zm8.144,47.756-7.035-10.921-.087-.134h14.25l-7.122,11.055Z" transform="translate(-122.796 -188.178)" fill="#2c2a6e"/>
        </g>
      </g>
    </g>
  </g>
</svg>
