<?xml version="1.0" encoding="utf-8"?>
<svg id="Layer_2" data-name="Layer 2" viewBox="0 0 1920 1080" xmlns="http://www.w3.org/2000/svg">
  <defs>
    <style>
      .cls-1 {
        fill: #fff;
        stroke-width: 0px;
      }
    </style>
  </defs>
  <path id="Path_132-2" data-name="Path 132-2" class="cls-1" d="M 261.369 906.274 C 259.009 906.274 256.649 906.494 254.319 906.914 L 241.149 865.634 L 209.369 865.634 L 209.369 876.534 L 233.499 875.954 L 237.289 889.364 C 237.289 889.364 215.789 893.414 199.599 919.464 C 198.229 921.674 196.689 923.784 194.989 925.754 L 184.779 898.624 L 189.369 898.624 L 189.369 888.074 L 159.409 888.074 L 159.409 898.624 L 173.289 898.624 L 178.899 911.994 C 160.119 900.684 135.729 906.734 124.419 925.514 C 113.109 944.294 119.159 968.684 137.939 979.994 C 156.719 991.304 181.109 985.254 192.419 966.474 C 197.449 958.124 199.229 948.214 197.419 938.644 C 201.229 935.384 204.519 931.564 207.179 927.324 C 225.139 898.994 240.819 898.994 240.819 898.994 L 244.379 910.114 C 224.579 919.504 216.139 943.164 225.529 962.964 C 234.919 982.764 258.579 991.204 278.379 981.814 C 298.179 972.424 306.619 948.764 297.229 928.964 C 290.659 915.114 276.689 906.284 261.359 906.294 L 261.369 906.274 Z M 187.899 945.974 C 187.919 962.274 174.729 975.514 158.419 975.534 C 142.119 975.554 128.879 962.364 128.859 946.054 C 128.839 929.754 142.029 916.514 158.339 916.494 C 170.059 916.474 180.679 923.394 185.399 934.124 C 176.679 939.624 166.329 941.944 156.089 940.704 L 156.089 950.574 C 166.989 951.754 178.009 949.814 187.859 945.004 C 187.859 945.324 187.889 945.654 187.889 945.984 L 187.899 945.984 L 187.899 945.974 Z M 261.369 975.444 C 245.089 975.444 231.899 962.254 231.889 945.984 C 231.889 935.074 237.909 925.064 247.539 919.944 L 257.019 949.554 L 266.639 945.504 L 257.459 916.754 C 258.759 916.584 260.059 916.494 261.369 916.484 C 277.649 916.484 290.849 929.684 290.849 945.964 C 290.849 962.244 277.649 975.444 261.369 975.444 Z"/>
  <path id="Path_132-2-2" data-name="Path 132-2" class="cls-1" d="M 641.579 906.274 C 639.219 906.274 636.859 906.494 634.529 906.914 L 621.359 865.634 L 589.579 865.634 L 589.579 876.534 L 613.709 875.954 L 617.499 889.364 C 617.499 889.364 595.999 893.414 579.809 919.464 C 578.439 921.674 576.899 923.784 575.199 925.754 L 564.989 898.624 L 569.579 898.624 L 569.579 888.074 L 539.619 888.074 L 539.619 898.624 L 553.499 898.624 L 559.109 911.994 C 540.329 900.684 515.939 906.734 504.629 925.514 C 493.319 944.294 499.369 968.684 518.149 979.994 C 536.929 991.304 561.319 985.254 572.629 966.474 C 577.659 958.124 579.439 948.214 577.629 938.644 C 581.439 935.384 584.729 931.564 587.389 927.324 C 605.349 898.994 621.029 898.994 621.029 898.994 L 624.589 910.114 C 604.789 919.504 596.349 943.164 605.739 962.964 C 615.129 982.764 638.789 991.204 658.589 981.814 C 678.389 972.424 686.829 948.764 677.439 928.964 C 670.869 915.114 656.899 906.284 641.569 906.294 L 641.579 906.274 Z M 568.109 945.974 C 568.129 962.274 554.939 975.514 538.629 975.534 C 522.329 975.554 509.089 962.364 509.069 946.054 C 509.049 929.754 522.239 916.514 538.549 916.494 C 550.269 916.474 560.889 923.394 565.609 934.124 C 556.889 939.624 546.539 941.944 536.299 940.704 L 536.299 950.574 C 547.199 951.754 558.219 949.814 568.069 945.004 C 568.069 945.324 568.099 945.654 568.099 945.984 L 568.109 945.984 L 568.109 945.974 Z M 641.579 975.444 C 625.299 975.444 612.109 962.254 612.099 945.984 C 612.099 935.074 618.119 925.064 627.749 919.944 L 637.229 949.554 L 646.849 945.504 L 637.669 916.754 C 638.969 916.584 640.269 916.494 641.579 916.484 C 657.859 916.484 671.059 929.684 671.059 945.964 C 671.059 962.244 657.859 975.444 641.579 975.444 Z"/>
  <path id="Path_132-2-3" data-name="Path 132-2" class="cls-1" d="M 1021.789 906.274 C 1019.429 906.274 1017.069 906.494 1014.739 906.914 L 1001.569 865.634 L 969.789 865.634 L 969.789 876.534 L 993.919 875.954 L 997.709 889.364 C 997.709 889.364 976.209 893.414 960.019 919.464 C 958.649 921.674 957.109 923.784 955.409 925.754 L 945.199 898.624 L 949.789 898.624 L 949.789 888.074 L 919.829 888.074 L 919.829 898.624 L 933.709 898.624 L 939.319 911.994 C 920.539 900.684 896.149 906.734 884.839 925.514 C 873.529 944.294 879.579 968.684 898.359 979.994 C 917.139 991.304 941.529 985.254 952.839 966.474 C 957.869 958.124 959.649 948.214 957.839 938.644 C 961.649 935.384 964.939 931.564 967.599 927.324 C 985.559 898.994 1001.239 898.994 1001.239 898.994 L 1004.799 910.114 C 984.999 919.504 976.559 943.164 985.949 962.964 C 995.339 982.764 1018.999 991.204 1038.799 981.814 C 1058.599 972.424 1067.039 948.764 1057.649 928.964 C 1051.079 915.114 1037.109 906.284 1021.779 906.294 L 1021.789 906.274 Z M 948.319 945.974 C 948.339 962.274 935.149 975.514 918.839 975.534 C 902.539 975.554 889.299 962.364 889.279 946.054 C 889.259 929.754 902.449 916.514 918.759 916.494 C 930.479 916.474 941.099 923.394 945.819 934.124 C 937.099 939.624 926.749 941.944 916.509 940.704 L 916.509 950.574 C 927.409 951.754 938.429 949.814 948.279 945.004 C 948.279 945.324 948.309 945.654 948.309 945.984 L 948.319 945.984 L 948.319 945.974 Z M 1021.789 975.444 C 1005.509 975.444 992.319 962.254 992.309 945.984 C 992.309 935.074 998.329 925.064 1007.959 919.944 L 1017.439 949.554 L 1027.059 945.504 L 1017.879 916.754 C 1019.179 916.584 1020.479 916.494 1021.789 916.484 C 1038.069 916.484 1051.269 929.684 1051.269 945.964 C 1051.269 962.244 1038.069 975.444 1021.789 975.444 Z"/>
  <path id="Path_132-2-4" data-name="Path 132-2" class="cls-1" d="M 1401.989 906.274 C 1399.629 906.274 1397.269 906.494 1394.939 906.914 L 1381.769 865.634 L 1349.989 865.634 L 1349.989 876.534 L 1374.119 875.954 L 1377.909 889.364 C 1377.909 889.364 1356.409 893.414 1340.219 919.464 C 1338.849 921.674 1337.309 923.784 1335.609 925.754 L 1325.399 898.624 L 1329.989 898.624 L 1329.989 888.074 L 1300.029 888.074 L 1300.029 898.624 L 1313.909 898.624 L 1319.519 911.994 C 1300.739 900.684 1276.349 906.734 1265.039 925.514 C 1253.729 944.294 1259.779 968.684 1278.559 979.994 C 1297.339 991.304 1321.729 985.254 1333.039 966.474 C 1338.069 958.124 1339.849 948.214 1338.039 938.644 C 1341.849 935.384 1345.139 931.564 1347.799 927.324 C 1365.759 898.994 1381.439 898.994 1381.439 898.994 L 1384.999 910.114 C 1365.199 919.504 1356.759 943.164 1366.149 962.964 C 1375.539 982.764 1399.199 991.204 1418.999 981.814 C 1438.799 972.424 1447.239 948.764 1437.849 928.964 C 1431.279 915.114 1417.309 906.284 1401.979 906.294 L 1401.989 906.274 Z M 1328.519 945.974 C 1328.539 962.274 1315.349 975.514 1299.039 975.534 C 1282.739 975.554 1269.499 962.364 1269.479 946.054 C 1269.459 929.754 1282.649 916.514 1298.959 916.494 C 1310.679 916.474 1321.299 923.394 1326.019 934.124 C 1317.299 939.624 1306.949 941.944 1296.709 940.704 L 1296.709 950.574 C 1307.609 951.754 1318.629 949.814 1328.479 945.004 C 1328.479 945.324 1328.509 945.654 1328.509 945.984 L 1328.519 945.984 L 1328.519 945.974 Z M 1401.989 975.444 C 1385.709 975.444 1372.519 962.254 1372.509 945.984 C 1372.509 935.074 1378.529 925.064 1388.159 919.944 L 1397.639 949.554 L 1407.259 945.504 L 1398.079 916.754 C 1399.379 916.584 1400.679 916.494 1401.989 916.484 C 1418.269 916.484 1431.469 929.684 1431.469 945.964 C 1431.469 962.244 1418.269 975.444 1401.989 975.444 Z"/>
  <path id="Path_132-2-5" data-name="Path 132-2" class="cls-1" d="M 1782.199 906.274 C 1779.839 906.274 1777.479 906.494 1775.149 906.914 L 1761.979 865.634 L 1730.199 865.634 L 1730.199 876.534 L 1754.329 875.954 L 1758.119 889.364 C 1758.119 889.364 1736.619 893.414 1720.429 919.464 C 1719.059 921.674 1717.519 923.784 1715.819 925.754 L 1705.609 898.624 L 1710.199 898.624 L 1710.199 888.074 L 1680.239 888.074 L 1680.239 898.624 L 1694.119 898.624 L 1699.729 911.994 C 1680.949 900.684 1656.559 906.734 1645.249 925.514 C 1633.939 944.294 1639.989 968.684 1658.769 979.994 C 1677.549 991.304 1701.939 985.254 1713.249 966.474 C 1718.279 958.124 1720.059 948.214 1718.249 938.644 C 1722.059 935.384 1725.349 931.564 1728.009 927.324 C 1745.969 898.994 1761.649 898.994 1761.649 898.994 L 1765.209 910.114 C 1745.409 919.504 1736.969 943.164 1746.359 962.964 C 1755.749 982.764 1779.409 991.204 1799.209 981.814 C 1819.009 972.424 1827.449 948.764 1818.059 928.964 C 1811.489 915.114 1797.519 906.284 1782.189 906.294 L 1782.199 906.274 Z M 1708.729 945.974 C 1708.749 962.274 1695.559 975.514 1679.249 975.534 C 1662.949 975.554 1649.709 962.364 1649.689 946.054 C 1649.669 929.754 1662.859 916.514 1679.169 916.494 C 1690.889 916.474 1701.509 923.394 1706.229 934.124 C 1697.509 939.624 1687.159 941.944 1676.919 940.704 L 1676.919 950.574 C 1687.819 951.754 1698.839 949.814 1708.689 945.004 C 1708.689 945.324 1708.719 945.654 1708.719 945.984 L 1708.729 945.984 L 1708.729 945.974 Z M 1782.199 975.444 C 1765.919 975.444 1752.729 962.254 1752.719 945.984 C 1752.719 935.074 1758.739 925.064 1768.369 919.944 L 1777.849 949.554 L 1787.469 945.504 L 1778.289 916.754 C 1779.589 916.584 1780.889 916.494 1782.199 916.484 C 1798.479 916.484 1811.679 929.684 1811.679 945.964 C 1811.679 962.244 1798.479 975.444 1782.199 975.444 Z"/>
</svg>