<?xml version="1.0" encoding="UTF-8"?>
<svg id="Layer_1" data-name="Layer 1" xmlns="http://www.w3.org/2000/svg" viewBox="0 0 60 60">
  <defs>
    <style>
      .cls-1 {
        fill: #169dd9;
      }

      .cls-1, .cls-2 {
        stroke-width: 0px;
      }

      .cls-2 {
        fill: #fff;
      }
    </style>
  </defs>
  <circle class="cls-1" cx="30" cy="30" r="30"/>
  <g id="Group_25" data-name="Group 25">
    <path id="Icon_material-language" data-name="Icon material-language" class="cls-2" d="m29.97,14.7c-8.45.01-15.29,6.88-15.27,15.32.01,8.45,6.88,15.29,15.32,15.27,8.44-.01,15.27-6.86,15.27-15.3,0-8.45-6.85-15.3-15.3-15.3,0,0-.02,0-.03,0Zm10.61,9.18h-4.52c-.48-1.9-1.19-3.73-2.11-5.45,2.79.96,5.15,2.89,6.63,5.45h0Zm-10.6-6.06c1.29,1.85,2.27,3.9,2.92,6.06h-5.85c.65-2.16,1.64-4.2,2.92-6.06h0Zm-11.85,15.24c-.53-2.01-.53-4.12,0-6.12h5.18c-.13,1.01-.2,2.04-.21,3.06,0,1.02.08,2.05.21,3.06h-5.18Zm1.26,3.06h4.52c.48,1.9,1.19,3.73,2.11,5.45-2.8-.96-5.15-2.89-6.63-5.45h0Zm4.52-12.24h-4.52c1.48-2.56,3.83-4.49,6.63-5.45-.92,1.72-1.63,3.55-2.11,5.45h0Zm6.08,18.3c-1.29-1.85-2.27-3.9-2.93-6.06h5.85c-.65,2.16-1.64,4.21-2.92,6.06h0Zm3.58-9.12h-7.17c-.15-1.01-.23-2.04-.24-3.06.01-1.02.09-2.05.24-3.06h7.17c.15,1.01.23,2.04.25,3.06-.01,1.03-.09,2.05-.25,3.06h0Zm.38,8.51c.92-1.72,1.63-3.55,2.11-5.45h4.52c-1.48,2.55-3.84,4.49-6.63,5.45Zm2.71-8.51c.13-1.02.2-2.04.21-3.06,0-1.02-.08-2.05-.21-3.06h5.18c.53,2.01.53,4.12,0,6.12h-5.17Z"/>
  </g>
</svg>