<?xml version="1.0" encoding="UTF-8"?>
<svg id="Layer_3" data-name="Layer 3" xmlns="http://www.w3.org/2000/svg" xmlns:xlink="http://www.w3.org/1999/xlink" viewBox="0 0 1928 398.26">
  <defs>
    <style>
      .cls-1 {
        clip-path: url(#clippath);
      }

      .cls-2 {
        fill: none;
      }

      .cls-2, .cls-3, .cls-4 {
        stroke-width: 0px;
      }

      .cls-3 {
        fill: #f4ac15;
      }

      .cls-4 {
        fill: #ffc93d;
      }
    </style>
    <clipPath id="clippath">
      <rect class="cls-2" width="1928" height="398.26"/>
    </clipPath>
  </defs>
  <g class="cls-1">
    <g id="Group_19" data-name="Group 19">
      <path id="Path_17" data-name="Path 17" class="cls-4" d="m4-47.76l-190,446.02h32L36-47.76H4Z"/>
      <path id="Path_18" data-name="Path 18" class="cls-3" d="m-27-47.76l-190,446.02h32L5-47.76H-27Z"/>
      <path id="Path_19" data-name="Path 19" class="cls-3" d="m35-47.76l-190,446.02h32L67-47.76h-32Z"/>
      <path id="Path_20" data-name="Path 20" class="cls-4" d="m66-47.76L-124,398.26h32L98-47.76h-32Z"/>
      <path id="Path_21" data-name="Path 21" class="cls-4" d="m128-47.76L-62,398.26H-30L160-47.76h-32Z"/>
      <path id="Path_22" data-name="Path 22" class="cls-3" d="m97-47.76L-93,398.26h32L129-47.76h-32Z"/>
      <path id="Path_23" data-name="Path 23" class="cls-3" d="m159-47.76L-31,398.26H1L191-47.76h-32Z"/>
      <path id="Path_24" data-name="Path 24" class="cls-4" d="m190-47.76L0,398.26h32L222-47.76h-32Z"/>
      <path id="Path_25" data-name="Path 25" class="cls-4" d="m252-47.76L62,398.26h32L284-47.76h-32Z"/>
      <path id="Path_26" data-name="Path 26" class="cls-3" d="m221-47.76L31,398.26h32L253-47.76h-32Z"/>
      <path id="Path_27" data-name="Path 27" class="cls-3" d="m283-47.76L93,398.26h32L315-47.76h-32Z"/>
      <path id="Path_28" data-name="Path 28" class="cls-4" d="m314-47.76L124,398.26h32L346-47.76h-32Z"/>
      <path id="Path_29" data-name="Path 29" class="cls-4" d="m376-47.76l-190,446.02h32L408-47.76h-32Z"/>
      <path id="Path_30" data-name="Path 30" class="cls-3" d="m345-47.76l-190,446.02h32L377-47.76h-32Z"/>
      <path id="Path_31" data-name="Path 31" class="cls-3" d="m407-47.76l-190,446.02h32L439-47.76h-32Z"/>
      <path id="Path_32" data-name="Path 32" class="cls-4" d="m438-47.76l-190,446.02h32L470-47.76h-32Z"/>
      <path id="Path_33" data-name="Path 33" class="cls-4" d="m500-47.76l-190,446.02h32L532-47.76h-32Z"/>
      <path id="Path_34" data-name="Path 34" class="cls-3" d="m469-47.76l-190,446.02h32L501-47.76h-32Z"/>
      <path id="Path_35" data-name="Path 35" class="cls-3" d="m531-47.76l-190,446.02h32L563-47.76h-32Z"/>
      <path id="Path_36" data-name="Path 36" class="cls-4" d="m562-47.76l-190,446.02h32L594-47.76h-32Z"/>
      <path id="Path_37" data-name="Path 37" class="cls-4" d="m624-47.76l-190,446.02h32L656-47.76h-32Z"/>
      <path id="Path_38" data-name="Path 38" class="cls-3" d="m593-47.76l-190,446.02h32L625-47.76h-32Z"/>
      <path id="Path_39" data-name="Path 39" class="cls-3" d="m655-47.76l-190,446.02h32L687-47.76h-32Z"/>
      <path id="Path_40" data-name="Path 40" class="cls-4" d="m686-47.76l-190,446.02h32L718-47.76h-32Z"/>
      <path id="Path_41" data-name="Path 41" class="cls-4" d="m748-47.76l-190,446.02h32L780-47.76h-32Z"/>
      <path id="Path_42" data-name="Path 42" class="cls-3" d="m717-47.76l-190,446.02h32L749-47.76h-32Z"/>
      <path id="Path_43" data-name="Path 43" class="cls-3" d="m779-47.76l-190,446.02h32L811-47.76h-32Z"/>
      <path id="Path_44" data-name="Path 44" class="cls-4" d="m810-47.76l-190,446.02h32L842-47.76h-32Z"/>
      <path id="Path_45" data-name="Path 45" class="cls-4" d="m872-47.76l-190,446.02h32L904-47.76h-32Z"/>
      <path id="Path_46" data-name="Path 46" class="cls-3" d="m841-47.76l-190,446.02h32L873-47.76h-32Z"/>
      <path id="Path_47" data-name="Path 47" class="cls-3" d="m903-47.76l-190,446.02h32L935-47.76h-32Z"/>
      <path id="Path_48" data-name="Path 48" class="cls-4" d="m934-47.76l-190,446.02h32L966-47.76h-32Z"/>
      <path id="Path_49" data-name="Path 49" class="cls-4" d="m996-47.76l-190,446.02h32l190-446.02h-32Z"/>
      <path id="Path_50" data-name="Path 50" class="cls-3" d="m965-47.76l-190,446.02h32L997-47.76h-32Z"/>
      <path id="Path_51" data-name="Path 51" class="cls-3" d="m1027-47.76l-190,446.02h32l190-446.02h-32Z"/>
      <path id="Path_52" data-name="Path 52" class="cls-4" d="m1058-47.76l-190,446.02h32l190-446.02h-32Z"/>
      <path id="Path_53" data-name="Path 53" class="cls-4" d="m1120-47.76l-190,446.02h32l190-446.02h-32Z"/>
      <path id="Path_54" data-name="Path 54" class="cls-3" d="m1089-47.76l-190,446.02h32l190-446.02h-32Z"/>
      <path id="Path_55" data-name="Path 55" class="cls-3" d="m1151-47.76l-190,446.02h32l190-446.02h-32Z"/>
      <path id="Path_56" data-name="Path 56" class="cls-4" d="m1182-47.76l-190,446.02h32l190-446.02h-32Z"/>
      <path id="Path_57" data-name="Path 57" class="cls-4" d="m1244-47.76l-190,446.02h32l190-446.02h-32Z"/>
      <path id="Path_58" data-name="Path 58" class="cls-3" d="m1213-47.76l-190,446.02h32l190-446.02h-32Z"/>
      <path id="Path_59" data-name="Path 59" class="cls-3" d="m1275-47.76l-190,446.02h32l190-446.02h-32Z"/>
      <path id="Path_60" data-name="Path 60" class="cls-4" d="m1306-47.76l-190,446.02h32l190-446.02h-32Z"/>
      <path id="Path_61" data-name="Path 61" class="cls-4" d="m1368-47.76l-190,446.02h32l190-446.02h-32Z"/>
      <path id="Path_62" data-name="Path 62" class="cls-3" d="m1337-47.76l-190,446.02h32l190-446.02h-32Z"/>
      <path id="Path_63" data-name="Path 63" class="cls-3" d="m1399-47.76l-190,446.02h32l190-446.02h-32Z"/>
      <path id="Path_64" data-name="Path 64" class="cls-4" d="m1430-47.76l-190,446.02h32l190-446.02h-32Z"/>
      <path id="Path_65" data-name="Path 65" class="cls-4" d="m1492-47.76l-190,446.02h32l190-446.02h-32Z"/>
      <path id="Path_66" data-name="Path 66" class="cls-3" d="m1461-47.76l-190,446.02h32l190-446.02h-32Z"/>
      <path id="Path_67" data-name="Path 67" class="cls-3" d="m1523-47.76l-190,446.02h32l190-446.02h-32Z"/>
      <path id="Path_68" data-name="Path 68" class="cls-4" d="m1555-47.76l-190,446.02h32l190-446.02h-32Z"/>
      <path id="Path_69" data-name="Path 69" class="cls-4" d="m1617-47.76l-190,446.02h32l190-446.02h-32Z"/>
      <path id="Path_70" data-name="Path 70" class="cls-3" d="m1586-47.76l-190,446.02h32l190-446.02h-32Z"/>
      <path id="Path_71" data-name="Path 71" class="cls-3" d="m1648-47.76l-190,446.02h32l190-446.02h-32Z"/>
      <path id="Path_72" data-name="Path 72" class="cls-4" d="m1679-47.76l-190,446.02h32l190-446.02h-32Z"/>
      <path id="Path_73" data-name="Path 73" class="cls-4" d="m1741-47.76l-190,446.02h32l190-446.02h-32Z"/>
      <path id="Path_74" data-name="Path 74" class="cls-3" d="m1710-47.76l-190,446.02h32l190-446.02h-32Z"/>
      <path id="Path_75" data-name="Path 75" class="cls-3" d="m1772-47.76l-190,446.02h32l190-446.02h-32Z"/>
      <path id="Path_76" data-name="Path 76" class="cls-4" d="m1803-47.76l-190,446.02h32l190-446.02h-32Z"/>
      <path id="Path_77" data-name="Path 77" class="cls-4" d="m1865-47.76l-190,446.02h32l190-446.02h-32Z"/>
      <path id="Path_78" data-name="Path 78" class="cls-3" d="m1834-47.76l-190,446.02h32l190-446.02h-32Z"/>
      <path id="Path_79" data-name="Path 79" class="cls-3" d="m1896-47.76l-190,446.02h32l190-446.02h-32Z"/>
      <path id="Path_80" data-name="Path 80" class="cls-4" d="m1927-47.76l-190,446.02h32l190-446.02h-32Z"/>
      <path id="Path_81" data-name="Path 81" class="cls-4" d="m1989-47.76l-190,446.02h32l190-446.02h-32Z"/>
      <path id="Path_82" data-name="Path 82" class="cls-3" d="m1958-47.76l-190,446.02h32l190-446.02h-32Z"/>
      <path id="Path_83" data-name="Path 83" class="cls-3" d="m2020-47.76l-190,446.02h32l190-446.02h-32Z"/>
      <path id="Path_84" data-name="Path 84" class="cls-4" d="m2051-47.76l-190,446.02h32l190-446.02h-32Z"/>
      <path id="Path_86" data-name="Path 86" class="cls-3" d="m2082-47.76l-190,446.02h32l190-446.02h-32Z"/>
    </g>
  </g>
</svg>